# xmcd
#
# Track frame offsets:
#	150
#	21662
#	52524
#	86944
#	130051
#	136313
#	180735
#	200333
#	202463
#	219530
#	249725
#	265210
#	296798
#	305993
#	334440
#
# Disc length: 4699 seconds
#
# Revision: 0
# Processed by: cddbd v1.5.2PL0 Copyright (c) Steve Scherf et al.
# Submitted via: audiograbber 1.83.01
#
DISCID=fc12590f
DTITLE=Jean-Michel Jarre - The Concerts In China [CD-R]
DYEAR=1982
DGENRE=Electronic
TTITLE0=The Overture [live]
TTITLE1=Arpegiator [live]
TTITLE2=Equinoxe IV [live]
TTITLE3=Fishing Junks At Sunset [live]
TTITLE4=Band In The Rain [live]
TTITLE5=Equinoxe VII [live]
TTITLE6=Orient Express [live]
TTITLE7=Magnetic Fields I [live]
TTITLE8=Magnetic Fields III [live]
TTITLE9=Magnetic Fields IV [live]
TTITLE10=Laser Harp [live]
TTITLE11=Night In Shanghai [live]
TTITLE12=The Last Rumba [live]
TTITLE13=Magnetic Fields II [live]
TTITLE14=Souvenir Of China [live]
EXTD=
EXTT0=
EXTT1=
EXTT2=
EXTT3=
EXTT4=
EXTT5=
EXTT6=
EXTT7=
EXTT8=
EXTT9=
EXTT10=
EXTT11=
EXTT12=
EXTT13=
EXTT14=
PLAYORDER=
